<svg width="17" height="16" viewBox="0 0 17 16" fill="none" xmlns="http://www.w3.org/2000/svg">
<path d="M8.44767 5.34938C7.01922 5.34938 5.8535 6.51187 5.8535 7.93636C5.8535 9.36085 7.01922 10.5233 8.44767 10.5233C9.87612 10.5233 11.0418 9.36085 11.0418 7.93636C11.0418 6.51187 9.87612 5.34938 8.44767 5.34938ZM16.2282 7.93636C16.2282 6.86508 16.238 5.80351 16.1776 4.73417C16.1173 3.4921 15.8332 2.38977 14.9224 1.48151C14.0097 0.571314 12.9062 0.289909 11.6607 0.229747C10.5864 0.169585 9.52192 0.179288 8.44961 0.179288C7.37536 0.179288 6.31083 0.169585 5.23852 0.229747C3.99301 0.289909 2.88761 0.573255 1.97683 1.48151C1.0641 2.39171 0.781918 3.4921 0.721588 4.73417C0.661258 5.80545 0.670989 6.86702 0.670989 7.93636C0.670989 9.0057 0.661258 10.0692 0.721588 11.1386C0.781918 12.3806 1.06605 13.483 1.97683 14.3912C2.88956 15.3014 3.99301 15.5828 5.23852 15.643C6.31278 15.7031 7.3773 15.6934 8.44961 15.6934C9.52387 15.6934 10.5884 15.7031 11.6607 15.643C12.9062 15.5828 14.0116 15.2995 14.9224 14.3912C15.8351 13.481 16.1173 12.3806 16.1776 11.1386C16.2399 10.0692 16.2282 9.00764 16.2282 7.93636ZM8.44767 11.9168C6.23883 11.9168 4.45618 10.1391 4.45618 7.93636C4.45618 5.73364 6.23883 3.95594 8.44767 3.95594C10.6565 3.95594 12.4392 5.73364 12.4392 7.93636C12.4392 10.1391 10.6565 11.9168 8.44767 11.9168ZM12.6026 4.72252C12.0869 4.72252 11.6704 4.30721 11.6704 3.79292C11.6704 3.27862 12.0869 2.86331 12.6026 2.86331C13.1183 2.86331 13.5348 3.27862 13.5348 3.79292C13.535 3.91504 13.511 4.03599 13.4642 4.14884C13.4174 4.2617 13.3487 4.36424 13.2621 4.45059C13.1755 4.53694 13.0727 4.60541 12.9595 4.65207C12.8464 4.69874 12.7251 4.72268 12.6026 4.72252Z" fill="white"/>
</svg>
