<svg width="21" height="20" viewBox="0 0 21 20" fill="none" xmlns="http://www.w3.org/2000/svg">
<g clip-path="url(#clip0_1_348)">
<path d="M8.95924 0H7.83828L7.09097 2.85675L6.34366 0H5.09814C5.34725 0.745238 5.59635 1.36627 5.84545 2.11151C6.21911 3.10516 6.46821 3.9746 6.46821 4.47143V7.45238H7.58917V4.47143L8.95924 0ZM11.9485 5.58929V3.72619C11.9485 3.10516 11.8239 2.73254 11.5748 2.35992C11.3257 1.9873 10.9521 1.8631 10.4539 1.8631C9.95565 1.8631 9.582 2.11151 9.33289 2.48413C9.08379 2.73254 8.95924 3.10516 8.95924 3.72619V5.71349C8.95924 6.33452 9.08379 6.70714 9.33289 6.95556C9.582 7.32818 9.95565 7.45238 10.4539 7.45238C10.9521 7.45238 11.3257 7.20397 11.5748 6.83135C11.8239 6.70714 11.9485 6.21032 11.9485 5.58929ZM10.9521 5.8377C10.9521 6.33452 10.8275 6.58294 10.4539 6.58294C10.0802 6.58294 9.95565 6.33452 9.95565 5.8377V3.47778C9.95565 2.98095 10.0802 2.73254 10.4539 2.73254C10.8275 2.73254 10.9521 2.98095 10.9521 3.47778V5.8377ZM15.685 7.45238V1.8631H14.6886V6.08611C14.4395 6.45873 14.3149 6.58294 14.0658 6.58294C13.9413 6.58294 13.8167 6.45873 13.8167 6.33452V1.8631H12.8203V6.21032C12.8203 6.58294 12.8203 6.83135 12.9449 7.07976C12.9449 7.32818 13.194 7.45238 13.5676 7.45238C13.9413 7.45238 14.3149 7.20397 14.6886 6.83135V7.45238H15.685Z" fill="white"/>
<path d="M16.1829 13.0415C15.8095 13.0415 15.6851 13.2899 15.6851 13.7867V14.2836H16.6808V13.7867C16.6808 13.2899 16.5563 13.0415 16.1829 13.0415Z" fill="white"/>
<path d="M12.5711 13.0415C12.4466 13.0415 12.1977 13.1657 12.0732 13.2899V16.6435C12.1977 16.7677 12.4466 16.8919 12.5711 16.8919C12.82 16.8919 12.9445 16.6435 12.9445 16.1467V13.7867C12.9445 13.2899 12.82 13.0415 12.5711 13.0415Z" fill="white"/>
<path d="M18.6741 10.3091C18.425 9.4397 17.6777 8.69446 16.9304 8.69446C14.9376 8.44604 12.8202 8.44604 10.7028 8.44604C8.58544 8.44604 6.59262 8.44604 4.47524 8.69446C3.72794 8.69446 2.98063 9.4397 2.73152 10.3091C2.48242 11.5512 2.48242 12.9175 2.48242 14.1595C2.48242 15.4016 2.48242 16.7679 2.73152 18.0099C2.98063 18.8794 3.60338 19.5004 4.47524 19.6246C6.59262 19.873 8.58544 19.873 10.7028 19.873C12.8202 19.873 14.813 19.873 16.9304 19.6246C17.8022 19.5004 18.5496 18.8794 18.6741 18.0099C18.9232 16.7679 18.9232 15.4016 18.9232 14.1595C18.9232 12.9175 18.9232 11.5512 18.6741 10.3091ZM7.21537 11.427H5.96986V17.7615H4.8489V11.427H3.72794V10.3091H7.21537V11.427ZM10.2046 17.7615H9.2082V17.1405C8.83454 17.6373 8.46089 17.7615 8.08723 17.7615C7.71358 17.7615 7.58903 17.6373 7.46448 17.3889C7.46448 17.2647 7.33993 17.0163 7.33993 16.5195V12.1722H8.33634V16.5195C8.33634 16.6437 8.46089 16.7679 8.58544 16.7679C8.83454 16.7679 8.95909 16.6437 9.2082 16.271V12.1722H10.2046V17.7615ZM13.9412 16.0226C13.9412 16.5195 13.9412 16.8921 13.8166 17.1405C13.692 17.5131 13.4429 17.7615 13.0693 17.7615C12.6956 17.7615 12.322 17.5131 12.0729 17.1405V17.6373H11.0765V10.3091H12.0729V12.6691C12.4465 12.2964 12.6956 12.048 13.0693 12.048C13.4429 12.048 13.692 12.2964 13.8166 12.6691C13.9412 12.9175 13.9412 13.2901 13.9412 13.7869V16.0226ZM17.6777 15.1532H15.6849V16.1468C15.6849 16.6437 15.8094 16.8921 16.1831 16.8921C16.4322 16.8921 16.5567 16.7679 16.6813 16.5195V15.8984H17.6777V16.6437C17.6777 16.8921 17.5531 17.0163 17.4286 17.2647C17.1795 17.6373 16.8058 17.8857 16.1831 17.8857C15.6849 17.8857 15.3112 17.6373 14.9376 17.2647C14.6885 17.0163 14.5639 16.5195 14.5639 16.0226V14.1595C14.5639 13.5385 14.6885 13.1659 14.813 12.9175C15.0621 12.5449 15.4358 12.2964 16.0585 12.2964C16.5567 12.2964 16.9304 12.5449 17.1795 12.9175C17.4286 13.1659 17.4286 13.6627 17.4286 14.1595V15.1532H17.6777Z" fill="white"/>
</g>
<defs>
<clipPath id="clip0_1_348">
<rect width="19.9282" height="19.873" fill="white" transform="translate(0.73877)"/>
</clipPath>
</defs>
</svg>
