<svg width="17" height="14" viewBox="0 0 17 14" fill="none" xmlns="http://www.w3.org/2000/svg">
<path d="M16.2874 1.93536C15.6919 2.19154 15.0438 2.37591 14.3763 2.44771C15.0693 2.03713 15.5883 1.38847 15.8359 0.623433C15.1855 1.00923 14.4731 1.27975 13.7302 1.42301C13.4197 1.09198 13.0441 0.828257 12.6269 0.648289C12.2097 0.468321 11.7599 0.37596 11.3053 0.376961C9.46624 0.376961 7.98719 1.86356 7.98719 3.68784C7.98719 3.94401 8.01833 4.20019 8.06893 4.44666C5.31518 4.30305 2.85918 2.99112 1.22639 0.982467C0.928877 1.48922 0.772971 2.06622 0.77489 2.65343C0.77489 3.80234 1.36067 4.8154 2.25394 5.4112C1.72752 5.39053 1.21343 5.24624 0.753483 4.99006V5.03082C0.753483 6.63968 1.89391 7.97296 3.41382 8.27959C3.12844 8.35351 2.83487 8.39133 2.54002 8.39215C2.324 8.39215 2.11966 8.37081 1.91337 8.34169C2.33373 9.65362 3.55784 10.6065 5.01548 10.6376C3.87505 11.5284 2.4466 12.0524 0.89555 12.0524C0.617255 12.0524 0.360368 12.0427 0.09375 12.0116C1.56501 12.9529 3.31068 13.4963 5.19063 13.4963C11.2936 13.4963 14.6332 8.45426 14.6332 4.07792C14.6332 3.93431 14.6332 3.7907 14.6234 3.64708C15.2696 3.17549 15.8359 2.59133 16.2874 1.93536Z" fill="white"/>
</svg>
